<?xml version="1.0" encoding="UTF-8" standalone="no"?>
<!-- Created with Inkscape (http://www.inkscape.org/) -->

<svg
   xmlns:dc="http://purl.org/dc/elements/1.1/"
   xmlns:cc="http://creativecommons.org/ns#"
   xmlns:rdf="http://www.w3.org/1999/02/22-rdf-syntax-ns#"
   xmlns:svg="http://www.w3.org/2000/svg"
   xmlns="http://www.w3.org/2000/svg"
   xmlns:sodipodi="http://sodipodi.sourceforge.net/DTD/sodipodi-0.dtd"
   xmlns:inkscape="http://www.inkscape.org/namespaces/inkscape"
   width="500.00003"
   height="200.00002"
   id="svg3055"
   version="1.1"
   inkscape:version="0.48.4 r9939"
   sodipodi:docname="gameover.svg"
   inkscape:export-filename="/home/WS/Work/Projects/Games/Phaser/sudo/rsc/media/gameover.png"
   inkscape:export-xdpi="90"
   inkscape:export-ydpi="90">
  <defs
     id="defs3057" />
  <sodipodi:namedview
     id="base"
     pagecolor="#ffffff"
     bordercolor="#666666"
     borderopacity="1.0"
     inkscape:pageopacity="0.0"
     inkscape:pageshadow="2"
     inkscape:zoom="1.979899"
     inkscape:cx="197.41408"
     inkscape:cy="24.633517"
     inkscape:document-units="px"
     inkscape:current-layer="g3857-8-2"
     showgrid="false"
     fit-margin-top="0"
     fit-margin-left="0"
     fit-margin-right="0"
     fit-margin-bottom="0"
     inkscape:window-width="1920"
     inkscape:window-height="1025"
     inkscape:window-x="0"
     inkscape:window-y="0"
     inkscape:window-maximized="1" />
  <metadata
     id="metadata3060">
    <rdf:RDF>
      <cc:Work
         rdf:about="">
        <dc:format>image/svg+xml</dc:format>
        <dc:type
           rdf:resource="http://purl.org/dc/dcmitype/StillImage" />
        <dc:title></dc:title>
      </cc:Work>
    </rdf:RDF>
  </metadata>
  <g
     inkscape:label="Layer 1"
     inkscape:groupmode="layer"
     id="layer1"
     transform="translate(-47.751256,-179.53639)">
    <g
       id="g3865-3-3"
       transform="matrix(0.31065863,-0.34551949,0.61304085,0.42014124,101.40226,248.57452)">
      <g
         transform="matrix(1.6048514,-0.15535264,-0.48186236,1.4923744,670.68703,-281.79235)"
         style="stroke:#b33d00;stroke-opacity:1"
         id="g3857-8-2">
        <path
           style="fill:#221ed3;fill-opacity:1;fill-rule:evenodd;stroke:#0075f1;stroke-width:1.86601698;stroke-miterlimit:4;stroke-opacity:1;stroke-dasharray:none"
           d="m -456.88821,142.13932 c 0.76873,-6.47161 2.01751,-12.57718 3.62875,-18.25665 l -0.43192,-0.3053 c 0.15023,0.0236 0.31021,0.0464 0.46056,0.0697 0.0172,-0.0638 0.0648,-0.13673 0.0831,-0.20028 l 0.32035,0.25839 c 90.80925,14.19167 224.10811,54.2997 310.19298,120.17589 l 3.44432,4.94377 c 82.562611,63.18077 98.998911,129.86832 87.8973,175.28998 59.9360412,26.41255 124.59297,-10.35866 162.39902,30.98922 -37.193332,-12.85243 -93.210446,48.79227 -143.694503,38.3827 l -0.0973,-0.16466 c -0.170132,0.006 -0.301837,0.0184 -0.47203,0.0244 -0.208188,-0.0428 -0.572114,-0.11663 -0.572114,-0.11663 l 0.04003,0.15302 c -42.027966,1.50377 7.46739,63.89568 -19.891741,70.00636 C -52.16695,528.52631 -117.09883,442.12073 -82.102877,424.83315 -171.58606,407.11064 -269.9705,391.16941 -347.39471,331.92078 -422.71932,274.27886 -462.27171,187.44005 -456.8882,142.13924 z"
           id="path2993-7-2-0"
           inkscape:connector-curvature="0"
           sodipodi:nodetypes="cccccccccccccccccscc" />
        <g
           id="g3861-1-5-7"
           transform="translate(-112.57458,282.66423)" />
        <g
           transform="matrix(0.17875304,0.66195586,1.6078944,0.58712464,-653.47435,409.46397)"
           style="stroke-width:3.41823888;stroke-miterlimit:4;stroke-dasharray:none"
           id="g3115">
          <path
             style="fill:none;stroke:#000000;stroke-width:2;stroke-linecap:butt;stroke-linejoin:miter;stroke-miterlimit:4;stroke-opacity:1;stroke-dasharray:none"
             d="M 39.395949,362.93307 C 58.083771,343.2351 58.083771,343.2351 58.083771,343.2351"
             id="path3095"
             inkscape:connector-curvature="0"
             transform="matrix(1.2663429,0.98909884,1.7633327,-0.92943154,-1172.7231,488.56432)" />
          <path
             style="fill:none;stroke:#000000;stroke-width:3.41823888;stroke-linecap:butt;stroke-linejoin:miter;stroke-miterlimit:4;stroke-opacity:1;stroke-dasharray:none"
             d="m -459.19738,208.69352 c -58.39926,-0.17624 -58.39926,-0.17624 -58.39926,-0.17624"
             id="path3095-6"
             inkscape:connector-curvature="0" />
        </g>
      </g>
    </g>
  </g>
</svg>
